<svg height="464pt" viewBox="-64 0 464 464" width="464pt" xmlns="http://www.w3.org/2000/svg"><path d="m48 32h240v432h-240zm0 0" fill="#b11e48"/><path d="m0 0h336v32h-336zm0 0" fill="#ffd782"/><path d="m16 32h32v432h-32zm0 0" fill="#e97424"/><path d="m288 32h32v432h-32zm0 0" fill="#e97424"/><path d="m104 384h128c8.835938 0 16 7.164062 16 16v16c0 8.835938-7.164062 16-16 16h-128c-8.835938 0-16-7.164062-16-16v-16c0-8.835938 7.164062-16 16-16zm0 0" fill="#ffd782"/><path d="m168 72 19.777344 36.871094 44.222656 5.914062-32 28.695313 7.550781 40.519531-39.550781-19.128906-39.550781 19.128906 7.550781-40.519531-32-28.695313 44.222656-5.914062zm0 0" fill="#fcf05a"/><path d="m80 256c-4.417969 0-8-3.582031-8-8v-24c0-4.417969 3.582031-8 8-8s8 3.582031 8 8v24c0 4.417969-3.582031 8-8 8zm0 0" fill="#aabece"/></svg>