<?xml version="1.0" encoding="iso-8859-1"?>
<!-- Generator: Adobe Illustrator 19.0.0, SVG Export Plug-In . SVG Version: 6.00 Build 0)  -->
<svg version="1.1" id="Capa_1" xmlns="http://www.w3.org/2000/svg" xmlns:xlink="http://www.w3.org/1999/xlink" x="0px" y="0px"
	 viewBox="0 0 468.293 468.293" style="enable-background:new 0 0 468.293 468.293;" xml:space="preserve">
<path style="fill:#64798A;" d="M0,390.872V80.527C0,73.631,5.591,68.04,12.488,68.04h443.317c6.897,0,12.488,5.591,12.488,12.488
	v310.345c0,6.897-5.591,12.488-12.488,12.488H12.488C5.591,403.36,0,397.769,0,390.872z"/>
<rect x="17.346" y="85.354" style="fill:#27A2DB;" width="433.577" height="300.644"/>
<path style="fill:#64798A;" d="M335.35,434.058h-37.375c-0.04-0.175-0.004-0.348-0.078-0.521c-2.473-5.806-3.253-14.8-2.338-22.616
	c0.322-2.75-0.314-5.36-1.609-7.561H174.342c-1.295,2.201-1.931,4.811-1.609,7.561c0.915,7.816,0.136,16.809-2.338,22.616
	c-0.074,0.174-0.038,0.346-0.078,0.521h-37.375c-15.606,0-28.258,12.651-28.258,28.258h258.923
	C363.608,446.709,350.956,434.058,335.35,434.058z"/>
<circle style="fill:#EBF0F3;" cx="234.146" cy="242.201" r="93.659"/>
<path style="fill:#FCD462;" d="M309.072,242.212c0,41.317-33.613,74.927-74.927,74.927s-74.927-33.61-74.927-74.927
	c2.5-3.971,7.259-3.943,11.583-2.121c4.324,1.822,8.324,4.842,13.008,5.125c9.258,0.559,16.571-9.678,25.827-9.099
	c7.397,0.463,12.717,7.651,19.926,9.371c7.302,1.742,14.563-2.43,20.998-6.297c6.435-3.867,13.999-7.723,21.123-5.354
	c4.754,1.581,8.413,5.739,13.294,6.867C292.669,242.482,302.602,237.69,309.072,242.212z"/>
<rect x="208.534" y="37.919" style="fill:#EBF0F3;" width="51.231" height="157.659"/>
<path style="fill:#E1E6E9;" d="M402.139,334.856l-52.853-67.999V160.515h-46.128v106.342l-52.853,67.999
	c-5.234,6.734-0.435,16.541,8.093,16.541h135.647C402.574,351.397,407.372,341.59,402.139,334.856z"/>
<path style="fill:#44C4A1;" d="M363.344,305.296l22.207,28.574c1.594,2.051,0.132,5.038-2.465,5.038h-113.73
	c-2.597,0-4.059-2.987-2.465-5.038l22.208-28.573c3.254-7.175,12.63-10.818,19.808-7.57c1.492,0.675,2.951,1.614,4.589,1.634
	c3.698,0.046,5.931-4.4,9.515-5.312c5.479-1.394,9.993,5.934,15.619,5.377c2.346-0.232,4.302-1.812,6.447-2.792
	C351.852,293.54,361.167,298.174,363.344,305.296z"/>
<path style="fill:#E1E6E9;" d="M347.036,160.515h-41.629c-3.448,0-6.244-2.795-6.244-6.244v-8.952c0-3.448,2.795-6.244,6.244-6.244
	h41.629c3.448,0,6.244,2.795,6.244,6.244v8.952C353.28,157.719,350.485,160.515,347.036,160.515z"/>
<rect x="303.141" y="160.531" style="fill:#D5D6DB;" width="46.13" height="16.009"/>
<path style="fill:#E1E6E9;" d="M217.988,334.856l-52.853-67.999V160.515h-46.128v106.342l-52.853,67.999
	c-5.234,6.734-0.435,16.541,8.093,16.541h135.647C218.423,351.397,223.221,341.59,217.988,334.856z"/>
<path style="fill:#E56353;" d="M179.193,305.296L201.4,333.87c1.594,2.051,0.132,5.038-2.465,5.038H85.205
	c-2.597,0-4.059-2.987-2.465-5.038l22.208-28.573c3.254-7.175,12.63-10.818,19.808-7.57c1.492,0.675,2.951,1.614,4.589,1.634
	c3.698,0.046,5.931-4.4,9.515-5.312c5.479-1.394,9.993,5.934,15.619,5.377c2.346-0.232,4.302-1.812,6.447-2.792
	C167.701,293.54,177.016,298.174,179.193,305.296z"/>
<path style="fill:#E1E6E9;" d="M162.885,160.515h-41.629c-3.448,0-6.244-2.795-6.244-6.244v-8.952c0-3.448,2.795-6.244,6.244-6.244
	h41.629c3.448,0,6.244,2.795,6.244,6.244v8.952C169.129,157.719,166.334,160.515,162.885,160.515z"/>
<rect x="119.009" y="160.531" style="fill:#D5D6DB;" width="46.13" height="16.009"/>
<path style="fill:#EBF0F3;" d="M261.627,37.917h-54.962c-3.448,0-6.244-2.795-6.244-6.244V12.22c0-3.448,2.796-6.244,6.244-6.244
	h54.962c3.448,0,6.244,2.795,6.244,6.244v19.453C267.871,35.122,265.076,37.917,261.627,37.917z"/>
<rect x="208.534" y="37.919" style="fill:#D5D6DB;" width="51.231" height="22.022"/>
<g>
	<circle style="fill:#44C4A1;" cx="332.463" cy="215.477" r="6.244"/>
	<circle style="fill:#44C4A1;" cx="317.502" cy="239.354" r="6.244"/>
	<circle style="fill:#44C4A1;" cx="332.463" cy="271.984" r="6.244"/>
</g>
<g>
	<circle style="fill:#E56353;" cx="149.535" cy="215.477" r="6.244"/>
	<circle style="fill:#E56353;" cx="134.619" cy="239.354" r="6.244"/>
	<circle style="fill:#E56353;" cx="149.535" cy="271.984" r="6.244"/>
</g>
<g>
	<circle style="fill:#F6C358;" cx="235.395" cy="154.786" r="6.244"/>
	<circle style="fill:#F6C358;" cx="235.395" cy="107.87" r="6.244"/>
	<circle style="fill:#F6C358;" cx="220.435" cy="178.7" r="6.244"/>
	<circle style="fill:#F6C358;" cx="235.395" cy="211.294" r="6.244"/>
	<circle style="fill:#F6C358;" cx="266.24" cy="184.944" r="9.366"/>
	<circle style="fill:#F6C358;" cx="191.063" cy="209.233" r="9.366"/>
</g>
<g>
</g>
<g>
</g>
<g>
</g>
<g>
</g>
<g>
</g>
<g>
</g>
<g>
</g>
<g>
</g>
<g>
</g>
<g>
</g>
<g>
</g>
<g>
</g>
<g>
</g>
<g>
</g>
<g>
</g>
</svg>
