<svg xmlns="http://www.w3.org/2000/svg" height="512pt" version="1.1" viewBox="0 0 512 512" width="512pt">
<g id="surface1">
<path d="M 512 256 C 512 397.386719 397.386719 512 256 512 C 114.613281 512 0 397.386719 0 256 C 0 114.613281 114.613281 0 256 0 C 397.386719 0 512 114.613281 512 256 Z M 512 256 " style=" stroke:none;fill-rule:nonzero;fill:rgb(70.980392%,88.627451%,21.568627%);fill-opacity:1;" />
<path d="M 512 256 C 512 282.050781 508.109375 307.191406 500.871094 330.871094 C 468.859375 435.71875 371.328125 512 256 512 C 151.441406 512 61.511719 449.300781 21.769531 359.449219 C 7.769531 327.820312 0 292.820312 0 256 C 0 209.78125 12.25 166.429688 33.679688 129 C 77.800781 206.070312 160.839844 258 256 258 C 351.160156 258 434.210938 206.070312 478.320312 129 C 499.75 166.429688 512 209.78125 512 256 Z M 512 256 " style=" stroke:none;fill-rule:nonzero;fill:rgb(58.431373%,83.921569%,0%);fill-opacity:1;" />
<path d="M 30.742188 377.703125 C 37.898438 390.921875 46.171875 403.441406 55.460938 415.128906 C 102.359375 474.148438 174.761719 512 256 512 C 337.238281 512 409.640625 474.148438 456.539062 415.128906 C 465.828125 403.441406 474.101562 390.921875 481.257812 377.703125 Z M 30.742188 377.703125 " style=" stroke:none;fill-rule:nonzero;fill:rgb(52.156863%,68.627451%,7.058824%);fill-opacity:1;" />
<path d="M 487 193.371094 L 487 366.449219 C 482.550781 375.761719 477.550781 384.75 472.039062 393.390625 L 224.839844 393.390625 L 224.839844 193.371094 Z M 487 193.371094 " style=" stroke:none;fill-rule:nonzero;fill:rgb(45.490196%,49.411765%,61.960784%);fill-opacity:1;" />
<path d="M 200.710938 227.679688 L 200.710938 335.25 C 201.449219 335.390625 202.171875 335.53125 202.898438 335.679688 C 203.539062 335.808594 204.171875 335.949219 204.800781 336.089844 C 205.5 336.238281 206.199219 336.398438 206.898438 336.570312 C 206.96875 336.578125 207.03125 336.601562 207.101562 336.621094 L 207.101562 336.808594 C 207.101562 337.25 207.089844 337.679688 207.070312 338.109375 C 207.058594 338.460938 207.039062 338.808594 207.011719 339.160156 C 207 339.308594 206.988281 339.460938 206.96875 339.601562 C 206.941406 339.96875 206.898438 340.339844 206.851562 340.710938 C 206.800781 341.128906 206.738281 341.558594 206.660156 341.980469 C 206.589844 342.398438 206.511719 342.808594 206.421875 343.230469 C 206.339844 343.640625 206.238281 344.050781 206.140625 344.460938 C 206.03125 344.859375 205.921875 345.269531 205.789062 345.671875 C 205.671875 346.070312 205.539062 346.46875 205.398438 346.859375 C 205.050781 347.878906 204.640625 348.878906 204.179688 349.851562 C 204.109375 350 204.039062 350.148438 203.960938 350.300781 C 203.820312 350.578125 203.691406 350.851562 203.539062 351.121094 C 203.46875 351.28125 203.378906 351.429688 203.289062 351.578125 C 203.210938 351.730469 203.128906 351.878906 203.039062 352.03125 C 202.339844 353.25 201.558594 354.410156 200.710938 355.511719 L 200.710938 376.019531 L 202.75 376.75 L 219.761719 358.03125 L 224.839844 352.429688 L 224.839844 227.679688 Z M 200.710938 227.679688 L 200.710938 335.25 C 201.449219 335.390625 202.171875 335.53125 202.898438 335.679688 C 203.539062 335.808594 204.171875 335.949219 204.800781 336.089844 C 205.5 336.238281 206.199219 336.398438 206.898438 336.570312 C 206.96875 336.578125 207.03125 336.601562 207.101562 336.621094 L 207.101562 336.808594 C 207.101562 337.25 207.089844 337.679688 207.070312 338.109375 C 207.058594 338.460938 207.039062 338.808594 207.011719 339.160156 C 207 339.308594 206.988281 339.460938 206.96875 339.601562 C 206.941406 339.96875 206.898438 340.339844 206.851562 340.710938 C 206.800781 341.128906 206.738281 341.558594 206.660156 341.980469 C 206.589844 342.398438 206.511719 342.808594 206.421875 343.230469 C 206.339844 343.640625 206.238281 344.050781 206.140625 344.460938 C 206.03125 344.859375 205.921875 345.269531 205.789062 345.671875 C 205.671875 346.070312 205.539062 346.46875 205.398438 346.859375 C 205.050781 347.878906 204.640625 348.878906 204.179688 349.851562 C 204.109375 350 204.039062 350.148438 203.960938 350.300781 C 203.820312 350.578125 203.691406 350.851562 203.539062 351.121094 C 203.46875 351.28125 203.378906 351.429688 203.289062 351.578125 C 203.210938 351.730469 203.128906 351.878906 203.039062 352.03125 C 202.339844 353.25 201.558594 354.410156 200.710938 355.511719 L 200.710938 376.019531 L 202.75 376.75 L 219.761719 358.03125 L 224.839844 352.429688 L 224.839844 227.679688 Z M 512 256 C 512 225.980469 506.828125 197.171875 497.328125 170.410156 L 200.710938 170.410156 L 200.710938 416.351562 L 455.570312 416.351562 C 461.46875 409.019531 466.96875 401.351562 472.039062 393.390625 L 224.839844 393.390625 L 224.839844 193.371094 L 487 193.371094 L 487 366.449219 C 503.03125 333.011719 512 295.550781 512 256 Z M 200.710938 227.679688 L 200.710938 335.25 C 201.449219 335.390625 202.171875 335.53125 202.898438 335.679688 C 203.539062 335.808594 204.171875 335.949219 204.800781 336.089844 C 205.5 336.238281 206.199219 336.398438 206.898438 336.570312 C 206.96875 336.578125 207.03125 336.601562 207.101562 336.621094 L 207.101562 336.808594 C 207.101562 337.25 207.089844 337.679688 207.070312 338.109375 C 207.058594 338.460938 207.039062 338.808594 207.011719 339.160156 C 207 339.308594 206.988281 339.460938 206.96875 339.601562 C 206.941406 339.96875 206.898438 340.339844 206.851562 340.710938 C 206.800781 341.128906 206.738281 341.558594 206.660156 341.980469 C 206.589844 342.398438 206.511719 342.808594 206.421875 343.230469 C 206.339844 343.640625 206.238281 344.050781 206.140625 344.460938 C 206.03125 344.859375 205.921875 345.269531 205.789062 345.671875 C 205.671875 346.070312 205.539062 346.46875 205.398438 346.859375 C 205.050781 347.878906 204.640625 348.878906 204.179688 349.851562 C 204.109375 350 204.039062 350.148438 203.960938 350.300781 C 203.820312 350.578125 203.691406 350.851562 203.539062 351.121094 C 203.46875 351.28125 203.378906 351.429688 203.289062 351.578125 C 203.210938 351.730469 203.128906 351.878906 203.039062 352.03125 C 202.339844 353.25 201.558594 354.410156 200.710938 355.511719 L 200.710938 376.019531 L 202.75 376.75 L 219.761719 358.03125 L 224.839844 352.429688 L 224.839844 227.679688 Z M 200.710938 227.679688 L 200.710938 335.25 C 201.449219 335.390625 202.171875 335.53125 202.898438 335.679688 C 203.539062 335.808594 204.171875 335.949219 204.800781 336.089844 C 205.5 336.238281 206.199219 336.398438 206.898438 336.570312 C 206.96875 336.578125 207.03125 336.601562 207.101562 336.621094 L 207.101562 336.808594 C 207.101562 337.25 207.089844 337.679688 207.070312 338.109375 C 207.058594 338.460938 207.039062 338.808594 207.011719 339.160156 C 207 339.308594 206.988281 339.460938 206.96875 339.601562 C 206.941406 339.96875 206.898438 340.339844 206.851562 340.710938 C 206.800781 341.128906 206.738281 341.558594 206.660156 341.980469 C 206.589844 342.398438 206.511719 342.808594 206.421875 343.230469 C 206.339844 343.640625 206.238281 344.050781 206.140625 344.460938 C 206.03125 344.859375 205.921875 345.269531 205.789062 345.671875 C 205.671875 346.070312 205.539062 346.46875 205.398438 346.859375 C 205.050781 347.878906 204.640625 348.878906 204.179688 349.851562 C 204.109375 350 204.039062 350.148438 203.960938 350.300781 C 203.820312 350.578125 203.691406 350.851562 203.539062 351.121094 C 203.46875 351.28125 203.378906 351.429688 203.289062 351.578125 C 203.210938 351.730469 203.128906 351.878906 203.039062 352.03125 C 202.339844 353.25 201.558594 354.410156 200.710938 355.511719 L 200.710938 376.019531 L 202.75 376.75 L 219.761719 358.03125 L 224.839844 352.429688 L 224.839844 227.679688 Z M 200.710938 227.679688 L 200.710938 335.25 C 201.449219 335.390625 202.171875 335.53125 202.898438 335.679688 C 203.539062 335.808594 204.171875 335.949219 204.800781 336.089844 C 205.5 336.238281 206.199219 336.398438 206.898438 336.570312 C 206.96875 336.578125 207.03125 336.601562 207.101562 336.621094 L 207.101562 336.808594 C 207.101562 337.25 207.089844 337.679688 207.070312 338.109375 C 207.058594 338.460938 207.039062 338.808594 207.011719 339.160156 C 207 339.308594 206.988281 339.460938 206.96875 339.601562 C 206.941406 339.96875 206.898438 340.339844 206.851562 340.710938 C 206.800781 341.128906 206.738281 341.558594 206.660156 341.980469 C 206.589844 342.398438 206.511719 342.808594 206.421875 343.230469 C 206.238281 344.058594 206.03125 344.871094 205.789062 345.671875 C 205.671875 346.070312 205.539062 346.46875 205.398438 346.859375 C 205.050781 347.878906 204.640625 348.878906 204.179688 349.851562 C 204.109375 350 204.039062 350.148438 203.960938 350.300781 C 203.820312 350.578125 203.691406 350.851562 203.539062 351.121094 C 203.46875 351.28125 203.378906 351.429688 203.289062 351.578125 C 203.210938 351.730469 203.128906 351.878906 203.039062 352.03125 C 202.339844 353.25 201.558594 354.410156 200.710938 355.511719 L 200.710938 376.019531 L 202.75 376.75 L 219.761719 358.03125 L 224.839844 352.429688 L 224.839844 227.679688 Z M 200.710938 227.679688 " style=" stroke:none;fill-rule:nonzero;fill:rgb(19.607843%,23.137255%,35.294118%);fill-opacity:1;" />
<path d="M 487 193.371094 L 487 366.449219 C 482.550781 375.761719 477.550781 384.75 472.039062 393.390625 L 356.78125 393.390625 L 356.78125 193.371094 Z M 487 193.371094 " style=" stroke:none;fill-rule:nonzero;fill:rgb(27.843137%,30.980392%,43.529412%);fill-opacity:1;" />
<path d="M 296.300781 312.601562 L 296.300781 278.617188 L 321.5 278.617188 L 321.5 284.367188 L 303.164062 284.367188 L 303.164062 291.902344 L 320.226562 291.902344 L 320.226562 297.628906 L 303.164062 297.628906 L 303.164062 306.875 L 322.148438 306.875 L 322.148438 312.601562 Z M 296.300781 312.601562 " style=" stroke:none;fill-rule:nonzero;fill:rgb(100%,100%,100%);fill-opacity:1;" />
<path d="M 339.671875 293.6875 L 339.671875 287.703125 L 363.433594 287.703125 L 363.433594 293.6875 Z M 339.671875 303.976562 L 339.671875 297.972656 L 363.433594 297.972656 L 363.433594 303.976562 Z M 339.671875 303.976562 " style=" stroke:none;fill-rule:nonzero;fill:rgb(100%,100%,100%);fill-opacity:1;" />
<path d="M 381.539062 287.984375 L 387.542969 287.984375 L 387.542969 291.34375 C 389.691406 288.730469 392.25 287.425781 395.21875 287.425781 C 396.792969 287.425781 398.160156 287.75 399.320312 288.398438 C 400.480469 289.050781 401.429688 290.03125 402.171875 291.34375 C 403.253906 290.03125 404.421875 289.050781 405.671875 288.398438 C 406.925781 287.75 408.261719 287.425781 409.683594 287.425781 C 411.488281 287.425781 413.019531 287.792969 414.273438 288.527344 C 415.523438 289.261719 416.457031 290.339844 417.078125 291.761719 C 417.523438 292.8125 417.75 294.511719 417.75 296.859375 L 417.75 312.601562 L 411.234375 312.601562 L 411.234375 298.53125 C 411.234375 296.089844 411.011719 294.511719 410.5625 293.800781 C 409.960938 292.875 409.03125 292.410156 407.78125 292.410156 C 406.867188 292.410156 406.011719 292.6875 405.207031 293.246094 C 404.402344 293.800781 403.824219 294.617188 403.46875 295.691406 C 403.113281 296.765625 402.9375 298.460938 402.9375 300.777344 L 402.9375 312.601562 L 396.421875 312.601562 L 396.421875 299.109375 C 396.421875 296.714844 396.304688 295.167969 396.074219 294.472656 C 395.84375 293.777344 395.484375 293.261719 394.996094 292.921875 C 394.507812 292.582031 393.847656 292.410156 393.015625 292.410156 C 392.007812 292.410156 391.105469 292.683594 390.300781 293.222656 C 389.496094 293.761719 388.921875 294.542969 388.574219 295.5625 C 388.226562 296.585938 388.054688 298.277344 388.054688 300.640625 L 388.054688 312.601562 L 381.539062 312.601562 Z M 381.539062 287.984375 " style=" stroke:none;fill-rule:nonzero;fill:rgb(100%,100%,100%);fill-opacity:1;" />
<path d="M 446.03125 300.105469 L 452.683594 302.21875 C 451.664062 305.925781 449.96875 308.679688 447.59375 310.480469 C 445.222656 312.28125 442.214844 313.183594 438.566406 313.183594 C 434.054688 313.183594 430.34375 311.640625 427.4375 308.558594 C 424.53125 305.472656 423.082031 301.257812 423.082031 295.910156 C 423.082031 290.253906 424.539062 285.863281 427.460938 282.734375 C 430.382812 279.601562 434.222656 278.039062 438.984375 278.039062 C 443.140625 278.039062 446.515625 279.265625 449.113281 281.722656 C 450.65625 283.175781 451.816406 285.261719 452.589844 287.984375 L 445.796875 289.605469 C 445.394531 287.84375 444.558594 286.453125 443.28125 285.433594 C 442.007812 284.410156 440.460938 283.902344 438.636719 283.902344 C 436.117188 283.902344 434.070312 284.804688 432.503906 286.613281 C 430.933594 288.421875 430.148438 291.351562 430.148438 295.398438 C 430.148438 299.695312 430.921875 302.757812 432.46875 304.578125 C 434.011719 306.402344 436.023438 307.316406 438.496094 307.316406 C 440.316406 307.316406 441.886719 306.734375 443.199219 305.578125 C 444.515625 304.417969 445.460938 302.59375 446.03125 300.105469 Z M 446.03125 300.105469 " style=" stroke:none;fill-rule:nonzero;fill:rgb(100%,100%,100%);fill-opacity:1;" />
<path d="M 466.308594 283.226562 L 466.308594 285.757812 L 456.753906 285.757812 C 456.855469 284.800781 457.167969 283.894531 457.683594 283.035156 C 458.203125 282.179688 459.222656 281.042969 460.75 279.628906 C 461.980469 278.480469 462.734375 277.707031 463.011719 277.300781 C 463.386719 276.734375 463.574219 276.179688 463.574219 275.628906 C 463.574219 275.023438 463.410156 274.554688 463.085938 274.226562 C 462.757812 273.902344 462.304688 273.738281 461.730469 273.738281 C 461.160156 273.738281 460.710938 273.910156 460.371094 274.253906 C 460.035156 274.59375 459.84375 275.164062 459.789062 275.960938 L 457.074219 275.6875 C 457.238281 274.1875 457.742188 273.109375 458.597656 272.457031 C 459.453125 271.804688 460.519531 271.476562 461.800781 271.476562 C 463.203125 271.476562 464.304688 271.855469 465.105469 272.613281 C 465.910156 273.367188 466.308594 274.308594 466.308594 275.433594 C 466.308594 276.074219 466.195312 276.683594 465.964844 277.265625 C 465.734375 277.84375 465.371094 278.449219 464.875 279.082031 C 464.546875 279.503906 463.949219 280.109375 463.089844 280.898438 C 462.230469 281.6875 461.683594 282.210938 461.457031 282.46875 C 461.226562 282.726562 461.039062 282.980469 460.898438 283.226562 Z M 466.308594 283.226562 " style=" stroke:none;fill-rule:nonzero;fill:rgb(100%,100%,100%);fill-opacity:1;" />
<path d="M 306.609375 463.121094 L 306.609375 506.988281 C 290.25 510.28125 273.328125 512 256 512 C 255.449219 512 254.890625 512 254.339844 511.988281 C 227.570312 511.820312 201.789062 507.550781 177.578125 499.761719 C 128.910156 484.121094 86.589844 454.300781 55.488281 415.171875 C 64.378906 392.738281 79.328125 373.371094 98.328125 359.078125 C 105.871094 353.398438 114.058594 348.53125 122.75 344.570312 C 126.351562 342.941406 130.03125 341.460938 133.800781 340.148438 L 133.808594 340.148438 C 137.761719 338.78125 141.789062 337.589844 145.910156 336.609375 C 150.070312 335.609375 154.300781 334.800781 158.601562 334.210938 C 164.449219 333.410156 170.421875 332.988281 176.488281 332.988281 C 176.5 332.988281 176.5 332.988281 176.5 332.988281 C 176.859375 332.988281 177.21875 332.988281 177.578125 333 C 183.609375 333.050781 189.558594 333.511719 195.371094 334.359375 L 195.378906 334.359375 C 196.179688 334.480469 196.96875 334.601562 197.761719 334.730469 C 198.550781 334.859375 199.339844 334.988281 200.121094 335.140625 C 200.320312 335.171875 200.519531 335.210938 200.710938 335.25 C 201.449219 335.390625 202.171875 335.53125 202.898438 335.679688 C 203.539062 335.808594 204.171875 335.949219 204.800781 336.089844 C 205.5 336.238281 206.199219 336.398438 206.898438 336.570312 C 206.96875 336.578125 207.03125 336.601562 207.101562 336.621094 C 207.160156 336.628906 207.21875 336.648438 207.269531 336.660156 C 207.890625 336.808594 208.511719 336.96875 209.121094 337.121094 C 212.128906 337.898438 215.101562 338.78125 218.011719 339.761719 C 218.320312 339.871094 218.628906 339.96875 218.929688 340.078125 C 219.941406 340.421875 220.949219 340.78125 221.941406 341.160156 C 222.539062 341.378906 223.140625 341.609375 223.730469 341.839844 C 224.101562 341.980469 224.46875 342.128906 224.839844 342.28125 C 225.171875 342.410156 225.5 342.539062 225.820312 342.679688 C 227.371094 343.308594 228.910156 343.96875 230.421875 344.671875 C 230.769531 344.820312 231.121094 344.980469 231.460938 345.140625 C 231.480469 345.148438 231.511719 345.160156 231.53125 345.179688 C 231.960938 345.371094 232.371094 345.570312 232.78125 345.769531 C 232.890625 345.820312 233 345.871094 233.101562 345.921875 C 233.199219 345.96875 233.300781 346.019531 233.398438 346.070312 C 234.019531 346.378906 234.640625 346.679688 235.25 346.988281 C 235.519531 347.121094 235.800781 347.261719 236.070312 347.410156 C 236.339844 347.550781 236.609375 347.691406 236.878906 347.828125 C 237.03125 347.910156 237.179688 347.988281 237.328125 348.070312 C 237.601562 348.199219 237.859375 348.339844 238.121094 348.488281 C 238.378906 348.628906 238.640625 348.769531 238.898438 348.921875 L 238.910156 348.921875 C 239.511719 349.238281 240.101562 349.578125 240.699219 349.921875 L 240.710938 349.921875 C 241.621094 350.429688 242.519531 350.960938 243.421875 351.511719 C 243.449219 351.53125 243.488281 351.550781 243.519531 351.570312 C 243.761719 351.71875 244 351.871094 244.238281 352.011719 C 244.238281 352.019531 244.25 352.019531 244.25 352.019531 C 244.839844 352.371094 245.421875 352.738281 246 353.101562 C 246.269531 353.269531 246.53125 353.441406 246.789062 353.609375 C 246.871094 353.660156 246.941406 353.699219 247.011719 353.75 C 247.261719 353.910156 247.5 354.058594 247.730469 354.21875 C 248.300781 354.589844 248.859375 354.96875 249.429688 355.351562 C 249.441406 355.359375 249.449219 355.371094 249.46875 355.378906 C 250.03125 355.761719 250.578125 356.140625 251.128906 356.53125 C 251.691406 356.921875 252.25 357.320312 252.808594 357.71875 C 252.988281 357.851562 253.179688 357.988281 253.359375 358.128906 C 253.660156 358.359375 253.96875 358.578125 254.28125 358.808594 C 254.878906 359.261719 255.488281 359.71875 256.089844 360.179688 C 268 369.398438 278.269531 380.640625 286.371094 393.390625 C 290.890625 400.5 294.738281 408.070312 297.828125 416.039062 C 297.871094 416.140625 297.910156 416.25 297.949219 416.351562 C 303.539062 430.859375 306.609375 446.628906 306.609375 463.121094 Z M 306.609375 463.121094 " style=" stroke:none;fill-rule:nonzero;fill:rgb(5.882353%,60.784314%,90.980392%);fill-opacity:1;" />
<path d="M 306.609375 463.121094 L 306.609375 506.988281 C 290.25 510.28125 273.328125 512 256 512 C 255.449219 512 254.890625 512 254.339844 511.988281 C 227.570312 511.820312 201.789062 507.550781 177.578125 499.761719 L 177.578125 333 C 183.609375 333.050781 189.558594 333.511719 195.371094 334.359375 L 195.378906 334.359375 C 196.179688 334.480469 196.96875 334.601562 197.761719 334.730469 C 198.550781 334.859375 199.339844 334.988281 200.121094 335.140625 C 200.320312 335.171875 200.519531 335.210938 200.710938 335.25 C 201.449219 335.390625 202.171875 335.53125 202.898438 335.679688 C 203.539062 335.808594 204.171875 335.949219 204.800781 336.089844 C 205.5 336.238281 206.199219 336.398438 206.898438 336.570312 C 206.96875 336.578125 207.03125 336.601562 207.101562 336.621094 C 207.160156 336.628906 207.21875 336.648438 207.269531 336.660156 C 207.890625 336.808594 208.511719 336.96875 209.121094 337.121094 C 212.128906 337.898438 215.101562 338.78125 218.011719 339.761719 C 218.320312 339.871094 218.628906 339.96875 218.929688 340.078125 C 219.941406 340.421875 220.949219 340.78125 221.941406 341.160156 C 222.539062 341.378906 223.140625 341.609375 223.730469 341.839844 C 224.101562 341.980469 224.46875 342.128906 224.839844 342.28125 C 225.171875 342.410156 225.5 342.539062 225.820312 342.679688 C 227.371094 343.308594 228.910156 343.96875 230.421875 344.671875 C 230.769531 344.820312 231.109375 344.980469 231.460938 345.148438 C 231.480469 345.160156 231.5 345.171875 231.53125 345.179688 C 231.960938 345.371094 232.371094 345.570312 232.78125 345.769531 C 232.871094 345.808594 232.960938 345.859375 233.050781 345.910156 C 233.058594 345.910156 233.078125 345.921875 233.101562 345.921875 C 233.199219 345.96875 233.300781 346.019531 233.398438 346.070312 C 234.019531 346.378906 234.640625 346.679688 235.25 346.988281 C 235.519531 347.121094 235.800781 347.261719 236.070312 347.410156 C 236.339844 347.550781 236.609375 347.691406 236.878906 347.828125 C 237.03125 347.910156 237.179688 347.988281 237.328125 348.070312 C 237.859375 348.351562 238.378906 348.628906 238.898438 348.921875 L 238.910156 348.921875 C 239.511719 349.238281 240.101562 349.578125 240.699219 349.921875 L 240.710938 349.921875 C 241.421875 350.328125 242.128906 350.738281 242.828125 351.171875 C 243.03125 351.28125 243.21875 351.390625 243.421875 351.511719 C 243.449219 351.53125 243.488281 351.550781 243.519531 351.570312 C 243.679688 351.671875 243.851562 351.769531 244.011719 351.878906 C 244.089844 351.921875 244.160156 351.96875 244.238281 352.011719 C 244.238281 352.019531 244.25 352.019531 244.25 352.019531 C 244.839844 352.371094 245.421875 352.738281 246 353.101562 C 246.269531 353.269531 246.53125 353.441406 246.789062 353.609375 C 246.871094 353.660156 246.941406 353.699219 247.011719 353.75 C 247.261719 353.910156 247.5 354.058594 247.730469 354.21875 C 248.300781 354.589844 248.859375 354.96875 249.429688 355.351562 C 249.441406 355.359375 249.449219 355.371094 249.46875 355.378906 C 250.03125 355.761719 250.578125 356.140625 251.128906 356.53125 C 251.691406 356.921875 252.25 357.320312 252.808594 357.71875 C 252.988281 357.851562 253.179688 357.988281 253.359375 358.128906 C 253.660156 358.359375 253.96875 358.578125 254.28125 358.808594 C 254.878906 359.261719 255.488281 359.71875 256.089844 360.179688 C 268 369.398438 278.269531 380.640625 286.371094 393.390625 C 290.890625 400.5 294.738281 408.070312 297.828125 416.039062 C 297.871094 416.140625 297.910156 416.25 297.949219 416.351562 C 303.539062 430.859375 306.609375 446.628906 306.609375 463.121094 Z M 306.609375 463.121094 " style=" stroke:none;fill-rule:nonzero;fill:rgb(0%,40%,90.980392%);fill-opacity:1;" />
<path d="M 306.609375 463.121094 L 306.609375 506.988281 C 290.25 510.28125 273.328125 512 256 512 C 255.449219 512 254.890625 512 254.339844 511.988281 C 227.570312 511.820312 201.789062 507.550781 177.578125 499.761719 C 128.910156 484.121094 86.589844 454.300781 55.488281 415.171875 C 64.378906 392.738281 79.328125 373.371094 98.328125 359.078125 C 105.871094 353.398438 114.058594 348.53125 122.75 344.570312 L 132.960938 355.71875 L 151.820312 376.328125 L 177.578125 404.480469 L 200.710938 379.011719 L 202.75 376.75 L 219.761719 358.03125 L 224.839844 352.429688 L 231.460938 345.148438 L 231.460938 345.140625 C 231.480469 345.148438 231.511719 345.160156 231.53125 345.179688 C 231.960938 345.371094 232.371094 345.570312 232.78125 345.769531 C 232.871094 345.808594 232.960938 345.859375 233.050781 345.910156 C 233.171875 345.960938 233.289062 346.019531 233.398438 346.070312 C 234.019531 346.378906 234.640625 346.679688 235.25 346.988281 C 235.519531 347.121094 235.800781 347.261719 236.070312 347.410156 C 236.339844 347.550781 236.609375 347.691406 236.878906 347.828125 C 237.03125 347.910156 237.179688 347.988281 237.328125 348.070312 C 237.601562 348.199219 237.859375 348.339844 238.121094 348.488281 C 238.378906 348.628906 238.640625 348.769531 238.898438 348.921875 L 238.910156 348.921875 C 239.511719 349.238281 240.101562 349.578125 240.699219 349.921875 L 240.710938 349.921875 C 241.421875 350.328125 242.128906 350.738281 242.828125 351.171875 C 243.03125 351.28125 243.21875 351.390625 243.421875 351.511719 C 243.449219 351.53125 243.488281 351.550781 243.519531 351.570312 C 243.679688 351.671875 243.851562 351.769531 244.011719 351.878906 C 244.089844 351.921875 244.160156 351.96875 244.238281 352.011719 C 244.238281 352.019531 244.25 352.019531 244.25 352.019531 C 244.929688 352.441406 245.609375 352.859375 246.28125 353.289062 C 246.449219 353.390625 246.621094 353.5 246.789062 353.609375 C 246.871094 353.660156 246.941406 353.699219 247.011719 353.75 C 247.261719 353.910156 247.5 354.058594 247.730469 354.21875 C 248.300781 354.589844 248.859375 354.96875 249.429688 355.351562 C 249.441406 355.359375 249.449219 355.371094 249.46875 355.378906 C 250.03125 355.761719 250.578125 356.140625 251.128906 356.53125 C 251.558594 356.839844 252.011719 357.148438 252.429688 357.460938 C 252.738281 357.679688 253.050781 357.898438 253.359375 358.128906 C 253.660156 358.359375 253.96875 358.578125 254.28125 358.808594 C 254.878906 359.261719 255.488281 359.71875 256.089844 360.179688 C 268 369.398438 278.269531 380.640625 286.371094 393.390625 C 290.890625 400.5 294.738281 408.070312 297.828125 416.039062 C 297.871094 416.140625 297.910156 416.25 297.949219 416.351562 C 303.539062 430.859375 306.609375 446.628906 306.609375 463.121094 Z M 306.609375 463.121094 " style=" stroke:none;fill-rule:nonzero;fill:rgb(27.843137%,30.980392%,43.529412%);fill-opacity:1;" />
<path d="M 306.609375 463.121094 L 306.609375 506.988281 C 290.25 510.28125 273.328125 512 256 512 C 255.449219 512 254.890625 512 254.339844 511.988281 C 227.570312 511.820312 201.789062 507.550781 177.578125 499.761719 L 177.578125 404.480469 L 200.710938 379.011719 L 202.75 376.75 L 219.761719 358.03125 L 224.839844 352.429688 L 231.460938 345.148438 L 231.460938 345.140625 C 231.480469 345.148438 231.511719 345.160156 231.53125 345.179688 C 231.960938 345.371094 232.371094 345.570312 232.78125 345.769531 C 232.871094 345.808594 232.960938 345.859375 233.050781 345.910156 C 233.171875 345.960938 233.289062 346.019531 233.398438 346.070312 C 234.019531 346.378906 234.640625 346.679688 235.25 346.988281 C 235.519531 347.121094 235.800781 347.261719 236.070312 347.410156 C 236.339844 347.550781 236.609375 347.691406 236.878906 347.828125 C 237.03125 347.910156 237.179688 347.988281 237.328125 348.070312 C 237.601562 348.199219 237.859375 348.339844 238.121094 348.488281 C 238.378906 348.628906 238.640625 348.769531 238.898438 348.921875 L 238.910156 348.921875 C 239.511719 349.238281 240.101562 349.578125 240.699219 349.921875 L 240.710938 349.921875 C 241.421875 350.328125 242.128906 350.738281 242.828125 351.171875 C 243.03125 351.28125 243.21875 351.390625 243.421875 351.511719 C 243.449219 351.53125 243.488281 351.550781 243.519531 351.570312 C 243.679688 351.671875 243.851562 351.769531 244.011719 351.878906 C 244.089844 351.921875 244.160156 351.96875 244.238281 352.011719 C 244.238281 352.019531 244.25 352.019531 244.25 352.019531 C 244.929688 352.441406 245.609375 352.859375 246.28125 353.289062 C 246.449219 353.390625 246.621094 353.5 246.789062 353.609375 C 246.871094 353.660156 246.941406 353.699219 247.011719 353.75 C 247.261719 353.910156 247.5 354.058594 247.730469 354.21875 C 248.300781 354.589844 248.859375 354.96875 249.429688 355.351562 C 249.441406 355.359375 249.449219 355.371094 249.46875 355.378906 C 250.03125 355.761719 250.578125 356.140625 251.128906 356.53125 C 251.558594 356.839844 252.011719 357.148438 252.429688 357.460938 C 252.738281 357.679688 253.050781 357.898438 253.359375 358.128906 C 253.660156 358.359375 253.96875 358.578125 254.28125 358.808594 C 254.878906 359.261719 255.488281 359.71875 256.089844 360.179688 C 268 369.398438 278.269531 380.640625 286.371094 393.390625 C 290.890625 400.5 294.738281 408.070312 297.828125 416.039062 C 297.871094 416.140625 297.910156 416.25 297.949219 416.351562 C 303.539062 430.859375 306.609375 446.628906 306.609375 463.121094 Z M 306.609375 463.121094 " style=" stroke:none;fill-rule:nonzero;fill:rgb(19.607843%,23.137255%,35.294118%);fill-opacity:1;" />
<path d="M 194.429688 322.609375 L 158.335938 322.609375 C 143.113281 322.609375 131.167969 335.664062 132.519531 350.824219 L 135.316406 382.25 L 176.699219 367.40625 L 218.078125 382.25 L 220.285156 350.3125 C 221.320312 335.332031 209.449219 322.609375 194.429688 322.609375 Z M 194.429688 322.609375 " style=" stroke:none;fill-rule:nonzero;fill:rgb(100%,100%,100%);fill-opacity:1;" />
<path d="M 264.160156 188.964844 L 264.160156 259.125 L 88.84375 259.125 L 88.84375 188.964844 C 88.84375 164.757812 98.65625 149.761719 114.515625 140.824219 C 130.378906 131.886719 152.296875 129 176.496094 129 L 176.867188 129 C 225.113281 129.0625 264.160156 140.675781 264.160156 188.964844 Z M 264.160156 188.964844 " style=" stroke:none;fill-rule:nonzero;fill:rgb(27.843137%,30.980392%,43.529412%);fill-opacity:1;" />
<path d="M 264.160156 188.964844 L 264.160156 259.125 L 176.503906 259.125 L 176.867188 194.265625 L 176.867188 129 C 225.113281 129.0625 264.160156 140.675781 264.160156 188.964844 Z M 264.160156 188.964844 " style=" stroke:none;fill-rule:nonzero;fill:rgb(19.607843%,23.137255%,35.294118%);fill-opacity:1;" />
<path d="M 267.175781 220.515625 C 278.328125 220.515625 287.367188 229.558594 287.367188 240.710938 C 287.367188 261.023438 270.902344 277.488281 250.589844 277.488281 L 250.589844 220.472656 Z M 267.175781 220.515625 " style=" stroke:none;fill-rule:nonzero;fill:rgb(100%,65.882353%,47.843137%);fill-opacity:1;" />
<path d="M 85.832031 220.515625 C 74.679688 220.515625 65.636719 229.558594 65.636719 240.710938 C 65.636719 261.023438 82.105469 277.488281 102.417969 277.488281 L 102.417969 220.472656 Z M 85.832031 220.515625 " style=" stroke:none;fill-rule:nonzero;fill:rgb(100%,65.882353%,47.843137%);fill-opacity:1;" />
<path d="M 145.914062 293.285156 L 145.914062 336.8125 C 145.914062 353.703125 159.605469 367.40625 176.503906 367.40625 C 193.394531 367.40625 207.097656 353.703125 207.097656 336.8125 L 207.097656 293.285156 Z M 145.914062 293.285156 " style=" stroke:none;fill-rule:nonzero;fill:rgb(89.019608%,51.372549%,35.294118%);fill-opacity:1;" />
<path d="M 145.914062 293.285156 L 145.914062 336.8125 C 145.914062 353.703125 159.605469 367.40625 176.503906 367.40625 L 176.503906 293.285156 Z M 145.914062 293.285156 " style=" stroke:none;fill-rule:nonzero;fill:rgb(100%,65.882353%,47.843137%);fill-opacity:1;" />
<path d="M 97.574219 224.308594 L 97.574219 254.0625 C 97.574219 297.636719 132.898438 332.984375 176.488281 332.992188 C 176.496094 332.992188 176.496094 332.992188 176.503906 332.992188 C 220.078125 332.992188 255.425781 297.644531 255.425781 254.0625 L 255.425781 224.308594 C 255.425781 219.824219 255.0625 215.425781 254.320312 211.152344 C 249.171875 180.40625 226.230469 155.695312 196.460938 147.921875 C 190.089844 146.269531 183.390625 145.386719 176.503906 145.386719 C 176.496094 145.386719 176.496094 145.386719 176.488281 145.386719 C 169.589844 145.386719 162.898438 146.269531 156.527344 147.9375 C 126.753906 155.695312 103.835938 180.40625 98.683594 211.152344 C 97.949219 215.425781 97.574219 219.824219 97.574219 224.308594 Z M 97.574219 224.308594 " style=" stroke:none;fill-rule:nonzero;fill:rgb(100%,65.882353%,47.843137%);fill-opacity:1;" />
<path d="M 242.050781 227.679688 L 255.425781 227.679688 L 255.425781 239.90625 L 242.050781 239.90625 Z M 242.050781 227.679688 " style=" stroke:none;fill-rule:nonzero;fill:rgb(19.607843%,23.137255%,35.294118%);fill-opacity:1;" />
<path d="M 97.574219 224.308594 L 97.574219 254.0625 C 97.574219 297.636719 132.898438 332.984375 176.488281 332.992188 L 176.488281 145.386719 C 169.589844 145.386719 162.898438 146.265625 156.527344 147.9375 C 126.753906 155.695312 103.835938 180.40625 98.683594 211.152344 C 97.949219 215.425781 97.574219 219.824219 97.574219 224.308594 Z M 97.574219 224.308594 " style=" stroke:none;fill-rule:nonzero;fill:rgb(100%,75.294118%,64.313725%);fill-opacity:1;" />
<path d="M 255.425781 213.800781 L 255.425781 239.90625 C 252.148438 242.582031 247.226562 240.253906 247.226562 236.019531 L 247.226562 217.367188 C 247.226562 213.96875 245.117188 210.921875 241.9375 209.730469 C 230.792969 205.535156 223.824219 194.363281 223.824219 182.457031 L 223.824219 181.691406 C 210.011719 189.683594 193.972656 194.265625 176.867188 194.265625 C 159.449219 194.265625 143.148438 189.515625 129.175781 181.246094 L 129.175781 183.527344 C 129.175781 195.210938 121.925781 205.660156 110.980469 209.757812 C 107.828125 210.941406 105.769531 214.003906 105.769531 217.371094 L 105.769531 236.023438 C 105.769531 239.007812 103.316406 241.046875 100.726562 241.046875 C 99.640625 241.046875 98.539062 240.695312 97.574219 239.90625 L 97.574219 213.800781 C 97.574219 192.007812 106.40625 172.277344 120.6875 157.996094 C 134.96875 143.707031 154.699219 134.875 176.492188 134.875 C 176.617188 134.875 176.742188 134.875 176.863281 134.882812 C 220.292969 135.074219 255.425781 170.332031 255.425781 213.800781 Z M 255.425781 213.800781 " style=" stroke:none;fill-rule:nonzero;fill:rgb(27.843137%,30.980392%,43.529412%);fill-opacity:1;" />
<path d="M 255.425781 213.800781 L 255.425781 239.90625 C 252.148438 242.582031 247.226562 240.253906 247.226562 236.019531 L 247.226562 217.367188 C 247.226562 213.96875 245.117188 210.921875 241.9375 209.730469 C 230.792969 205.535156 223.824219 194.363281 223.824219 182.457031 L 223.824219 181.691406 C 210.011719 189.683594 193.972656 194.265625 176.867188 194.265625 L 176.867188 134.882812 C 220.292969 135.074219 255.425781 170.332031 255.425781 213.800781 Z M 255.425781 213.800781 " style=" stroke:none;fill-rule:nonzero;fill:rgb(19.607843%,23.137255%,35.294118%);fill-opacity:1;" />
<path d="M 97.574219 227.679688 L 110.949219 227.679688 L 110.949219 239.90625 L 97.574219 239.90625 Z M 97.574219 227.679688 " style=" stroke:none;fill-rule:nonzero;fill:rgb(19.607843%,23.137255%,35.294118%);fill-opacity:1;" />
<path d="M 210.980469 244.171875 C 210.980469 249.535156 206.628906 253.886719 201.261719 253.886719 C 195.894531 253.886719 191.546875 249.535156 191.546875 244.171875 C 191.546875 238.804688 195.894531 234.453125 201.261719 234.453125 C 206.628906 234.453125 210.980469 238.804688 210.980469 244.171875 Z M 210.980469 244.171875 " style=" stroke:none;fill-rule:nonzero;fill:rgb(19.607843%,23.137255%,35.294118%);fill-opacity:1;" />
<path d="M 161.460938 244.171875 C 161.460938 249.535156 157.109375 253.886719 151.742188 253.886719 C 146.378906 253.886719 142.027344 249.535156 142.027344 244.171875 C 142.027344 238.804688 146.378906 234.453125 151.742188 234.453125 C 157.109375 234.453125 161.460938 238.804688 161.460938 244.171875 Z M 161.460938 244.171875 " style=" stroke:none;fill-rule:nonzero;fill:rgb(19.607843%,23.137255%,35.294118%);fill-opacity:1;" />
<path d="M 153.261719 283.730469 C 146.394531 283.730469 142.734375 291.972656 147.460938 296.960938 C 150.421875 300.085938 153.878906 302.730469 157.707031 304.769531 C 163.308594 307.769531 169.707031 309.464844 176.503906 309.464844 C 183.300781 309.464844 189.699219 307.769531 195.300781 304.769531 C 199.128906 302.730469 202.589844 300.085938 205.546875 296.960938 C 210.273438 291.972656 206.613281 283.730469 199.746094 283.730469 Z M 153.261719 283.730469 " style=" stroke:none;fill-rule:nonzero;fill:rgb(19.607843%,23.137255%,35.294118%);fill-opacity:1;" />
<path d="M 176.503906 271.554688 C 172.847656 271.554688 169.882812 268.589844 169.882812 264.933594 L 169.882812 235.558594 C 169.882812 231.902344 172.847656 228.9375 176.503906 228.9375 C 180.160156 228.9375 183.125 231.902344 183.125 235.558594 L 183.125 264.933594 C 183.125 268.589844 180.160156 271.554688 176.503906 271.554688 Z M 176.503906 271.554688 " style=" stroke:none;fill-rule:nonzero;fill:rgb(89.019608%,51.372549%,35.294118%);fill-opacity:1;" />
<path d="M 195.300781 304.765625 C 189.699219 307.769531 183.304688 309.464844 176.503906 309.464844 C 176.496094 309.464844 176.496094 309.464844 176.488281 309.464844 C 169.695312 309.464844 163.292969 307.769531 157.703125 304.765625 C 162.382812 299.707031 169.058594 296.535156 176.488281 296.527344 C 176.496094 296.527344 176.496094 296.527344 176.503906 296.527344 C 183.933594 296.527344 190.628906 299.707031 195.300781 304.765625 Z M 195.300781 304.765625 " style=" stroke:none;fill-rule:nonzero;fill:rgb(100%,20.392157%,27.058824%);fill-opacity:1;" />
<path d="M 195.300781 304.765625 C 189.699219 307.769531 183.304688 309.464844 176.503906 309.464844 C 176.496094 309.464844 176.496094 309.464844 176.488281 309.464844 L 176.488281 296.527344 C 176.496094 296.527344 176.496094 296.527344 176.503906 296.527344 C 183.933594 296.527344 190.628906 299.707031 195.300781 304.765625 Z M 195.300781 304.765625 " style=" stroke:none;fill-rule:nonzero;fill:rgb(86.666667%,7.058824%,39.607843%);fill-opacity:1;" />
<path d="M 242.050781 227.679688 L 191.03125 227.679688 C 188.789062 227.679688 186.738281 228.308594 185 229.390625 C 182.480469 230.96875 179.609375 231.898438 176.648438 231.988281 L 176.488281 231.988281 C 176.371094 232 176.261719 232 176.148438 232 C 173.011719 232 169.960938 231.050781 167.300781 229.390625 C 165.570312 228.308594 163.519531 227.679688 161.269531 227.679688 L 110.949219 227.679688 C 109.308594 227.699219 107.988281 229.03125 107.988281 230.679688 L 107.988281 237.050781 C 107.988281 238.339844 108.820312 239.5 110.050781 239.898438 C 110.058594 239.910156 110.058594 239.910156 110.070312 239.910156 C 111.199219 240.261719 112.019531 241.21875 112.199219 242.398438 C 112.871094 246.558594 114.398438 256.101562 114.398438 256.101562 C 114.570312 257.148438 114.839844 258.160156 115.199219 259.121094 C 117.488281 265.339844 123.449219 269.628906 130.289062 269.628906 L 152.230469 269.628906 C 159 269.628906 165 265.398438 167.320312 259.121094 C 167.449219 258.769531 167.570312 258.410156 167.679688 258.039062 C 167.679688 258.039062 170.199219 249.320312 171.539062 244.761719 C 172.140625 242.679688 174.03125 241.210938 176.199219 241.261719 C 176.25 241.261719 176.300781 241.261719 176.371094 241.269531 C 176.398438 241.269531 176.441406 241.269531 176.488281 241.28125 C 176.488281 241.28125 176.488281 241.28125 176.5 241.28125 C 176.5 241.28125 176.511719 241.28125 176.519531 241.28125 C 176.550781 241.28125 176.570312 241.28125 176.601562 241.289062 C 178.558594 241.46875 180.21875 242.851562 180.761719 244.761719 C 182.058594 249.21875 184.621094 258.039062 184.621094 258.039062 C 184.730469 258.410156 184.851562 258.769531 184.980469 259.121094 C 187.300781 265.398438 193.300781 269.628906 200.078125 269.628906 L 222.019531 269.628906 C 222.980469 269.628906 223.921875 269.550781 224.839844 269.378906 C 230.460938 268.390625 235.140625 264.460938 237.109375 259.121094 C 237.46875 258.160156 237.730469 257.148438 237.898438 256.101562 C 237.898438 256.101562 239.230469 247.828125 239.941406 243.421875 C 240.199219 241.769531 241.371094 240.410156 242.96875 239.910156 C 242.980469 239.910156 242.980469 239.910156 242.988281 239.898438 C 243.589844 239.691406 244.101562 239.308594 244.46875 238.820312 C 244.828125 238.320312 245.039062 237.710938 245.039062 237.050781 L 245.039062 230.679688 C 245.039062 229.019531 243.699219 227.679688 242.050781 227.679688 Z M 155.570312 264.648438 C 153.910156 265.378906 152.078125 265.78125 150.179688 265.78125 L 131.851562 265.78125 C 126.941406 265.78125 122.578125 263.148438 120.230469 259.121094 C 119.410156 257.71875 118.828125 256.148438 118.558594 254.460938 L 116.519531 241.78125 C 116.128906 239.359375 116.679688 237.039062 117.890625 235.140625 C 119.570312 232.5 122.53125 230.710938 125.949219 230.710938 L 157.738281 230.710938 C 164.109375 230.710938 168.691406 236.820312 166.910156 242.929688 L 164.691406 250.570312 L 163.089844 256.078125 C 162.769531 257.160156 162.328125 258.179688 161.78125 259.121094 C 160.339844 261.589844 158.148438 263.511719 155.570312 264.648438 Z M 224.839844 264.539062 C 224.808594 264.558594 224.789062 264.570312 224.761719 264.578125 C 223.148438 265.261719 221.390625 265.628906 219.550781 265.628906 L 201.359375 265.628906 C 201.140625 265.628906 200.921875 265.621094 200.710938 265.609375 C 196.199219 265.390625 192.171875 262.910156 189.910156 259.121094 C 189.339844 258.160156 188.878906 257.121094 188.558594 256.011719 L 184.769531 242.96875 C 183.121094 237.289062 187.011719 231.609375 192.710938 230.921875 C 193.089844 230.878906 193.46875 230.859375 193.859375 230.859375 L 225.378906 230.859375 C 231.21875 230.859375 235.671875 236.078125 234.738281 241.839844 L 233.769531 247.839844 L 232.769531 254.140625 L 232.71875 254.410156 C 232.441406 256.121094 231.851562 257.710938 231 259.121094 C 229.570312 261.53125 227.410156 263.429688 224.839844 264.539062 Z M 224.839844 264.539062 " style=" stroke:none;fill-rule:nonzero;fill:rgb(25.098039%,29.019608%,40%);fill-opacity:1;" />
<path d="M 275.5 383.394531 C 263.164062 395.734375 261.515625 415.167969 271.601562 429.40625 L 283.332031 445.960938 L 287.128906 442.167969 C 299.109375 430.1875 299.109375 410.761719 287.128906 398.78125 L 292.328125 393.578125 C 298.640625 387.265625 299.609375 377.636719 295.238281 370.300781 C 293.980469 368.195312 291.09375 367.804688 289.355469 369.539062 Z M 275.5 383.394531 " style=" stroke:none;fill-rule:nonzero;fill:rgb(100%,65.882353%,47.843137%);fill-opacity:1;" />
<path d="M 286.574219 397.03125 L 279.417969 389.875 L 368.949219 304.699219 L 371.480469 307.230469 Z M 286.574219 397.03125 " style=" stroke:none;fill-rule:nonzero;fill:rgb(19.607843%,23.137255%,35.294118%);fill-opacity:1;" />
<path d="M 318.160156 402.820312 L 314.820312 416.351562 L 308.261719 442.941406 L 308.261719 506.648438 C 307.710938 506.769531 307.160156 506.878906 306.609375 506.988281 C 290.25 510.28125 273.328125 512 256 512 L 254.339844 512 L 254.339844 511.988281 L 281.269531 426.808594 L 297.351562 416.351562 L 297.828125 416.039062 Z M 318.160156 402.820312 " style=" stroke:none;fill-rule:nonzero;fill:rgb(100%,65.882353%,47.843137%);fill-opacity:1;" />
<path d="M 309.789062 385.570312 L 292.453125 402.910156 C 289.84375 405.519531 285.609375 405.519531 282.996094 402.910156 C 280.386719 400.296875 280.386719 396.0625 282.996094 393.453125 L 300.335938 376.113281 C 302.945312 373.503906 307.179688 373.503906 309.789062 376.113281 C 312.402344 378.726562 312.402344 382.960938 309.789062 385.570312 Z M 309.789062 385.570312 " style=" stroke:none;fill-rule:nonzero;fill:rgb(100%,75.294118%,64.313725%);fill-opacity:1;" />
<path d="M 315.289062 398.984375 L 297.953125 416.324219 C 295.339844 418.933594 291.105469 418.933594 288.496094 416.324219 C 285.886719 413.710938 285.886719 409.476562 288.496094 406.867188 L 305.835938 389.527344 C 308.445312 386.917969 312.679688 386.917969 315.289062 389.527344 C 317.902344 392.140625 317.902344 396.375 315.289062 398.984375 Z M 315.289062 398.984375 " style=" stroke:none;fill-rule:nonzero;fill:rgb(100%,75.294118%,64.313725%);fill-opacity:1;" />
<path d="M 321.699219 411.484375 L 304.363281 428.824219 C 301.75 431.433594 297.515625 431.433594 294.90625 428.824219 C 292.296875 426.214844 292.296875 421.980469 294.90625 419.367188 L 312.242188 402.03125 C 314.855469 399.417969 319.089844 399.417969 321.699219 402.03125 C 324.3125 404.640625 324.3125 408.875 321.699219 411.484375 Z M 321.699219 411.484375 " style=" stroke:none;fill-rule:nonzero;fill:rgb(100%,75.294118%,64.313725%);fill-opacity:1;" />
<path d="M 331.15625 420.941406 L 313.816406 438.28125 C 311.207031 440.890625 306.972656 440.890625 304.363281 438.28125 C 301.75 435.667969 301.75 431.433594 304.363281 428.824219 L 321.699219 411.484375 C 324.3125 408.875 328.546875 408.875 331.15625 411.484375 C 333.765625 414.097656 333.765625 418.332031 331.15625 420.941406 Z M 331.15625 420.941406 " style=" stroke:none;fill-rule:nonzero;fill:rgb(100%,75.294118%,64.313725%);fill-opacity:1;" />
</g>
</svg>