<?xml version="1.0" ?><svg enable-background="new 0 0 64 64" height="64px" id="Layer_1" version="1.1" viewBox="0 0 64 64" width="64px" xml:space="preserve" xmlns="http://www.w3.org/2000/svg" xmlns:xlink="http://www.w3.org/1999/xlink"><circle cx="32" cy="32" fill="#76C2AF" r="32"/><path d="M45.293,51.489l5.196-5.196c0.861-0.861,0.609-2.509-0.562-3.68l-3.536-3.535l-0.707-0.707  L26.824,19.51l-8.428-2.886l-4.214-1.443l1.443,4.214l2.886,8.428l18.86,18.86l0.707,0.707l3.536,3.535  C42.784,52.098,44.432,52.35,45.293,51.489z" fill="#231F20" opacity="0.2"/><path d="M37.37,44.32c-1.172-1.172-1.423-2.819-0.562-3.68l5.196-5.196c0.861-0.861,2.509-0.609,3.68,0.562  l4.243,4.243c1.171,1.172,1.423,2.819,0.562,3.68l-5.196,5.196c-0.861,0.861-2.509,0.609-3.68-0.562L37.37,44.32z" fill="#C75C5C"/><rect fill="#E0995E" height="27.671" transform="matrix(0.7071 -0.7071 0.7071 0.7071 -9.3595 33.3423)" width="2.939" x="34.098" y="14.133"/><rect fill="#E0995E" height="29.671" transform="matrix(0.7071 -0.7071 0.7071 0.7071 -12.1842 31.3434)" width="5.879" x="28.804" y="15.544"/><rect fill="#E0995E" height="27.671" transform="matrix(0.7071 -0.7071 0.7071 0.7071 -15.5948 30.7607)" width="2.939" x="27.863" y="20.369"/><g><polygon fill="#4F5D73" points="14.182,12.818 15.625,17.032 18.396,14.261  "/><polygon fill="#F5CF87" points="26.824,17.147 18.396,14.261 15.625,17.032 18.51,25.46 19.549,24.421 22.003,24.796    21.253,19.889 26.16,20.639 25.785,18.186  "/></g><path d="M49.865,16.135c-1.933-1.933-13.04,6.04-19.874,12.874c-3.362,3.362-5.058,5.819-5.689,7.682  c-2.108-0.205-4.403,0.571-5.914,2.082c-0.968,0.968-1.498,2.041-1.894,3.202C15.733,44.206,15,47,12,48.99  c2.236,2.236,10.984,2.865,15.227-1.378c0.449-0.449,0.831-0.967,1.144-1.529c0.74-1.329,1.068-2.898,0.925-4.38  c1.864-0.627,4.325-2.324,7.695-5.694C43.825,29.175,51.798,18.068,49.865,16.135z" fill="#231F20" opacity="0.2"/><path d="M29.991,27.009c-6.834,6.834-6.807,9.941-4.874,11.874c1.933,1.933,5.04,1.96,11.874-4.874  c6.834-6.834,14.807-17.941,12.874-19.874C47.932,12.202,36.825,20.175,29.991,27.009z" fill="#F5CF87"/><g><path d="M12,46.99c2.236,2.237,10.984,2.865,15.227-1.378c0.449-0.449,0.831-0.967,1.144-1.529   c-6.637-0.198-10.145-2.408-11.877-4.108C15.733,42.206,15,45,12,46.99z" fill="#C75C5C"/><path d="M27.757,36.243c-2.441-2.441-6.928-1.91-9.369,0.53c-0.968,0.968-1.498,2.041-1.894,3.202   c1.732,1.7,5.13,6.942,11.877,4.108C29.761,41.59,29.749,38.235,27.757,36.243z" fill="#4F5D73"/></g><path d="M16.495,39.975c0,0,4.022-0.764,5.938,2.059c1.917,2.823,5.938,2.049,5.938,2.049l-5.205,2.875l-5.208-3.792  L16.495,39.975z" fill="#C75C5C"/></svg>